<?xml version="1.0" encoding="UTF-8"?>
<svg id="Layer_2" data-name="Layer 2" xmlns="http://www.w3.org/2000/svg" viewBox="0 0 1568.15 812.79">
  <defs>
    <style>
      .cls-1 {
        fill: #e8010f;
      }

      .cls-2 {
        fill: #f6f7f9;
      }

      .cls-3 {
        fill: #eaf2f5;
      }
    </style>
  </defs>
  <g id="Layer_1-2" data-name="Layer 1">
    <g>
      <path class="cls-3" d="M1056.15,800.89l-.15-8.96.02-.81v-3.16c.02-3.01-3.4-5.18-7.02-5.23l-34.49-.44-.11,18.11c-1.81,1.05-4.15.67-6.09.44l-.04-46.86,43.25.38c4.65.04,9.01,2.27,10.98,6.12,1.23,9.52,1.4,18.06-6.81,19.99,3.94,1.08,6.34,4.06,6.35,8.48l.04,11.91-5.93.02ZM1056.05,774.59c1.81-3.85,1.77-9.94-.2-13.21-1.34-2.23-5.59-2.2-7.84-2.22l-33.71-.17v18.35s33.82-.02,33.82-.02c2.27,0,6.7-.12,7.93-2.74Z"/>
      <path class="cls-3" d="M240.18,753.36c4.98,2.64,6.77,7.68,6.35,13.53l-6.12-.11c.21-3.01-.06-5.63-1.84-7.77-1.32-1.59-4.15-2.68-6.91-2.68h-27.23c-4.64,0-8.27,3.18-8.24,7.87l.12,23.38c.02,4.6,3.69,7.2,8.1,7.19l28.24-.06c2.9,0,5.34-1.7,6.42-3.28,1.55-2.26,1.09-4.61,1.62-7.34.27-1.4,4.31-1.22,5.73-.45.6,5.17-1.08,9.82-4.58,13.38-3.15,1.25-6.75,2.8-10.83,2.78l-26.7-.13c-5.09-.02-9.08-2.3-12.16-5.89-.31-.34-.47-.89-.63-1.33-2.3-6.38-2.25-26.71-.44-32.47l1.08-3.43c3.1-2.88,7.61-4.8,12.89-4.82l22.96-.09c4.32-.02,8.46.28,12.17,1.73Z"/>
      <path class="cls-3" d="M597.95,752.19c0,.38-.04.61-.18.96,4.75,2.09,7.39,7.91,6.54,13.14-1.03,1.28-5.42,1.06-5.69-.38-.54-2.81-.46-5.03-2.03-6.93-1.27-1.54-3.54-2.55-6.13-2.56l-27.86-.08c-4.65-.01-8.48,3.01-8.44,7.87l.16,23.38c.03,4.46,3.63,7.19,7.93,7.19l27.69.02c2.88,0,5.46-1.17,6.73-2.77,1.78-2.24,1.46-5.06,2.02-7.86.35-1.55,5.11-1.55,5.74-.15,1.01,8.33-4.33,15.56-12.86,15.53l-31.03-.11c-7.01-.03-12.31-5.63-12.27-12.55l.13-23.47c.03-6.08,4.75-11.19,10.72-11.33l14.92-.35,23.92.47Z"/>
      <path class="cls-3" d="M1209.08,772.23c-.09.54-.18,1.21,0,1.75,1.84,5.84,1.99,12.66-.02,18.93-3.3,10.27-24.06,11.87-35.7,5.14l-.11,14.75h-6.02s.16-46.33.16-46.33c0-1.89,5.62-.29,6.66,1.39,5.08-2.91,11.07-2.99,16.95-2.96,7.4.04,13.92,1.52,18.08,7.35ZM1201.97,793.95c3.72-4.73,3.5-16.09.22-20.76s-22.83-4.77-26.25-.14c-3.86,5.21-3.37,14.62-.35,20.22,2.61,4.85,20.45,5.55,26.38.68Z"/>
      <path class="cls-3" d="M445.9,763.44l4.52-.4,3.98-.13h1.98c5.3,0,9.88.66,14.36,3.41l.03-14.17c2.41-.29,4.06-.25,6.09.12l-.17,46.71c-2.03.2-3.96.24-4.87-.21-.79-.39-1.23-1.77-1.74-3.58-2.91,2.32-5.47,3.36-8.84,4.08-8.04,1.28-16.31.1-23.14-2.42-3.82-5.88-4.28-10.78-4.37-16.87-.12-8.14,3.49-15.79,12.18-16.55ZM467.39,792.09c5.47-4.62,3.91-15.76,1.28-20.38-3.19-5.61-23.27-5.33-26.77-.46s-3.73,16.42.58,21.26c6.25,3.55,19.13,4.46,24.9-.42Z"/>
      <path class="cls-3" d="M1292.02,800.79c-.18.12-.44.21-.64.21l-6.2-5.42c-3.77-7.04-4.03-17.22-.03-24.4,4.25-7.61,24.6-8.49,34.13-2.95l.17-13.84c1.82-.52,3.49-.65,6-.16l-.04,45.89c0,1.08-3.55,1.32-4.68.89-.99-.38-1.56-1.52-2.49-3.63-7.19,6.22-17.28,4.35-26.22,3.41ZM1318.95,789.85c1.7-9.32.58-18.73-7.12-19.6-10.74-1.2-22.06-1.26-23.01,6.76-1.08,9.15-.93,18.04,6.01,19.28,10.35,1.85,22.63,1.76,24.13-6.44Z"/>
      <path class="cls-3" d="M405.48,762.87l6,.07c8.34.09,14.92,5.05,15.02,13.52l.25,22.53c-2.16.13-4.09.25-5.08-.14-.85-.34-.92-2.42-.86-3.94-5.74,6.85-20.05,5.83-29.41,2.9-4.3-1.34-5.93-4.57-5.66-8.86.29-4.51,2.57-8.25,7.31-9.12,17.3-3.17,28.47,1.6,27.54,1.97.72-.29.87-11.55-5.23-13.08-6.44-1.61-13.68-1.35-20.16.41-.74,1.08-1.16,3.29-2.12,3.63-.76.27-3.46.93-4.44.06-2.15-2.15.43-6.45,3.38-7.77,4.4-1.97,8.68-2.24,13.45-2.19ZM420.81,788.69c-.94-5.58-16.35-5.67-26.18-4.08-2.69.44-3.23,3.68-2.85,5.82.35,1.97,2.07,3.78,4.84,4.06,11.23,1.13,25.38,1.28,24.19-5.81Z"/>
      <path class="cls-3" d="M262.05,798.9c-2.97-.59-6.11-1.4-8.02-3.49-2.48-2.7-1.39-6.05-1.81-8.96,1.61-4.18,5.02-6.08,9-7.4l.94.19c8.18-.57,16.47-1.07,24.8,1.91.52-4.12.32-10.41-4.06-12.02-6.02-2.2-15.38-2.1-21.1.5-1.49,1.22-3.45,5.71-7.15,2.97-2.7-11.89,27.67-12.35,34.45-5.64,3.22,3.19,4.14,8.52,4.15,12.97l.04,18.77c-3.23,1.34-6.64-.41-9.07-.7-7.68,2.74-14.8,2.38-22.16.91ZM287.25,789.48c.06-2.25-1.43-4.19-4.2-4.65-7.28-1.18-14.9-1.46-22.24-.11-2.49.46-2.81,3.76-2.52,5.48s1.19,3.7,3.55,4.05c10.68,1.6,25.25,1.83,25.41-4.79Z"/>
      <path class="cls-3" d="M1160.11,788.03c-.02.33-.2.82-.44,1.08.78,5.06-1.7,10.11-7.53,11.08-14.04,2.35-34.53,2.85-33.37-9.11l5.86.18c-.37,6.98,12.98,6.51,23.63,5.18,3.76-.47,5.69-2.64,5.59-5.87-.11-3.56-2.37-5.14-6.22-5.28l-20.94-.79c-5.19-.19-7.88-3.37-8.11-8.55-.21-4.7,1.9-8.51,7.01-9.68,8.44-1.94,17.74-1.79,26.4-.39,4.94.8,8.23,4.95,7.6,9.13-2.2.32-4.09.35-5.53-.26-.94-.4-.98-2.63-2.18-3.59-7.64-2.14-15.73-1.56-23.44-.74-3.04.32-3.85,2.86-3.8,5.06.05,2.33.79,4.17,3.74,4.25l20.21.54c5.69.15,9.7,2.68,11.52,7.75Z"/>
      <path class="cls-1" d="M527.84,783.88l.26,1.05c-2.17.44-1.4,3.44-2.14,4.87-3.49,6.77-11.78,9.04-17.88,5.82s-10.13-9.78-7.36-17.54c2.01-5.65,9.2-10.59,16.31-8.76,6.05,1.55,11.31,7.82,10.81,14.57Z"/>
      <path class="cls-1" d="M959.95,777.16l.26-1.8c1.07-.39,1.89-1.26,2.88-2.27,6.38-6.48,16.53-5.3,21.31,1.93,4.51,6.81,2.5,16.03-4.82,20.12-6.69,3.74-16.89.96-19.26-7.27l-.38-10.71Z"/>
      <path class="cls-3" d="M847.81,774.91l.16,2.09.02,6.11-.21,3.95.19,9.9-.05,1.96-6.09-.14-.06-21.42c-.01-4.64-2.21-8.33-7.13-9.07-11.28-1.7-22.01-.27-22,9.67l.02,20.95-6.39-.02c.85-4.86-.27-9.18-.2-13.92l.29-19.88-.17-1.26c1.69,0,3.7-.45,5.96.31.83.28.78,2.55.88,4.28,5.28-6.01,15.94-6.22,24.59-5.01,6.31.89,9.75,5.79,10.19,11.49Z"/>
      <path class="cls-3" d="M673.55,768.58l-1.7.39c-4.06.93-6.77,3.8-6.77,8.02l-.02,21.78c-2.22.39-3.84.42-6.05.08l.24-34.88c2.18-.27,4.32-.38,5.21.01.85.38.85,2.61.8,4.9,2.07-2.65,4.86-4.45,8.56-5.13,12.49-2.27,25.94-.81,26.13,10.36l.41,24.76c-2.51.35-4.13.25-6.17-.03l-.05-22.87c-.02-8.44-11.13-9.56-20.59-7.38Z"/>
      <path class="cls-2" d="M736.01,751.72c.48,0,1.08.25,1.51.4-.28,7.72-12.44,1.27-16.2,5.69-1.14,1.34-1.56,3.1-1.34,5.77l15.99.35c.71,1.29.84,2.44.81,4.26l-16.61.14c-.4.95-.18,1.88-.18,2.69v27.93s-6.05-.22-6.05-.22l.11-30.37h-6.03s.12-4.44.12-4.44l6.06-.15c-.79-5.64,1.97-11.72,7.82-11.81l13.99-.22Z"/>
      <path class="cls-3" d="M1273.94,799.01l-.13,1.76c-1.69.27-4.51.89-5.92-.54l-.14-45.89c2.49-.54,4.11-.41,6.06-.22l.14,44.89Z"/>
      <path class="cls-3" d="M320.31,798.81l-.06-5.82.28-28.94c1.97-.49,4.08-.45,6.18.01v34.83s-6.4-.09-6.4-.09Z"/>
      <path class="cls-3" d="M320.18,755.15c.31-.95.52-2.5.33-3.53,1.69.47,3.28.64,5.98.27l.1,5.98c-2.01.31-4.01.31-6.1-.07l-.32-2.64Z"/>
      <g>
        <path class="cls-1" d="M1168.04,231.06l-.05,1.55c-2.41,1.78-5.27,4.35-7.11,7.12l-4.09,6.18c-1.21,1.82-1.41,5.25-4.45,5.84.27,1.47.25,3.08-.09,3.93-.48,1.19-2.45,1.35-3.63,2.12-.99.96-1.09,5.15-3.89,5.15l-327.82.05c-2.12-2.83-.83-6.85,2.9-8.22-.02-4.62,3.23-6.61,5.01-9.9l6.33-11.74,3.49-5.38c4.39-6.77,11.18-16.63,11.77-21.57l1.49-3.1.57-2.48c4.63-1.48,5.98-5.71,8.73-9.65l3.6-5.16,5.13-8.88c2.39-4.14,5.51-7.3,7.02-12.22.41-1.35,3.26-2.79,5.39-2.79l331.25-.02c1.11,1.78.18,3.11-1.47,3.3l-16.67,26.41-9.13,14.63-4.74,6.41-7.32,12.54c-1.15,1.97-2.15,3.94-2.22,5.88Z"/>
        <path class="cls-1" d="M863.95,412.91c-.11-1.7.85-5.01,2.58-5.65,3.7-1.38,4.29-5.04,6.61-8.35l3.63-5.16,4.79-8.12,12.91-20.44c2.5-3.95,3.68-8.82,7.81-12,.43-4.11,3.31-6.53,5.23-9.45l10.98-16.71,303.64-.02-3.04,5.93c-1.71,3.33-4.13,5.27-5.8,8.24l-7.21,12.85c-1.49,2.66-3.59,5.04-5.3,7.68l-3.88,6-3.9,5.93-6.44,10.82-5.74,9.46-3.88,6-4.25,6.04c-1.26,1.79-2.44,6.4-5.97,7l-302.78-.03Z"/>
        <path class="cls-1" d="M1276.88,83.81l-3.72,5.46-5.26,7.78-350.86.05c-2.66,0-.08-4.86,1.3-5.77,2.13-1.4,2.55-5.05,3.85-7.11l7.37-11.71,16.73-27.41,7.79-12.81,19.9-31.67,354.43.13c-2.69,3.38-3.9,6.59-5.84,9.7l-8.47,13.61-8.74,14.4c-1.33,2.2-3.55,3.78-4.17,6.66l-4.25,6.5-5.84,10.11c-3.26,5.64-6.45,9.73-10.62,14.77-1.25,1.52-.35,4.96-3.61,7.31Z"/>
      </g>
      <path d="M853.83,73.03c.42.28.27.66.12.85-.66.49-1.29.85-2.09,2.15l-115.89,188.78c.23.37.1.88-.09,1.12l-37.7,60.82,144.12.15-10.36,17.43c-.06.14,0,.46.04.64l-42.24,67.98-17.66.05-28.21.11-175.66-.13c-4.14,0-7.3,1.52-11.95-.28l41.94-78.36c.95-1.77,1.27-3.03,1.06-4.57.15.02.48.06,1,.38l10-17.82,21.06-38.59-68.48,22.85c.08.69-.96,1.08-1.38.59l-44.54,15.5-3.85,1.16-67.27,23.28c.11-2.35,2.05-3.69,3.36-4.94l16.93-16.13,22-20.99,20.97-20.05,30.19-28.83c2.6-2.48,5.59-6.7,9.26-7.63l21.68,2.41,68.8,10.2c3.04.45,4.55-.87,6.03-3.55l89.75-161.58c-31.11-3.24-61.86,9.83-84.21,29.42l-24.65,21.6-96.57,90.12-39.32,37.82-16.54,15.77-50.42,48.43-78.29,78.37c-5.08,5.08-6.27,5.88-13.95,5.86l-86.69-.27c-3.84-.01-7.38,1.46-9.48-2.09.66-.84,1.61-.64,2.31-.91,1.37-.53,2.45-1.96,3.12-3.17.08-.15.07-.38.06-.54,2.66-.84,3.85-3.53,5.84-5.61,2.58-2.7,6.01-4.44,7.36-7.78.17.04.47.02.66-.05.97-.32,1.74-1.09,2.06-2.06.06-.18.06-.42.05-.62l44.84-43.47,48.2-46.68c1.13-1.1,1.72-2.14,1.94-3.25.25.01.69-.3,1.11-.09l23.29-22.41,24.94-24.14,46.96-45.89,30.12-28.94,24.82-24.25,72.07-68.74,28.75-30.43c22.07-23.36,49.14-39.76,79.52-49.23l5.29-1.65L696.23,0h202.32s-44.72,73.02-44.72,73.02Z"/>
      <path class="cls-3" d="M651.5,789.56c-2.53,10.39-16.06,11.35-27.93,9.79-4.67-.61-9.78-2.27-11.98-6.89-2.81-5.9-2.7-12.89-1.32-19.25,2.47-11.36,18.2-11.51,31.09-9.47,10.9,1.73,12.89,14.47,10.13,25.81ZM641.2,793.72c7.19-2.48,6.76-20.03,1.84-23.69-4.36-3.24-22.89-3.94-25.96,1.9-2.83,5.38-3.38,21.03,4.83,22.34,6.01.96,13.01,1.62,19.3-.55Z"/>
      <g>
        <path d="M824.02,522.53c.85.24,2.2.73,3.07.57.43.79,1.37,1.7,2.58,2.17,9.09,3.51,16.11,9.4,22.74,16.33,11.56,12.08,17.14,27.73,17.9,44.38,1.12,24.34-7.89,47.11-27.27,62.04-15.11,11.64-33.13,13.55-51.95,13.49l-41.02-.12c-13.04-.04-24.68-4.01-35.79-10.74-13.56-8.2-22.41-21.31-28.11-35.59l-.65-2.09c-2.49-7.98-2.86-16.09-2.8-25.08.14-21.14,9.38-40.97,26.2-54.14,11.31-8.85,25.48-14.5,40.05-14.58l47.06-.24c9.87-.05,19.05,1.02,27.99,3.58ZM803.41,623.48c18.37-1,28.91-18.06,28.36-34.48-.58-17.23-12.23-32.58-30.21-32.58h-50.08c-16.27-.02-27.55,13.22-29.76,28.55-2.59,17.92,8.02,37.07,27.49,38.49l54.2.02Z"/>
        <path d="M315.24,518.96l35.5.13.42,94.61c0,2.27,1.16,4.26,2.83,4.5.04.21-.09.61,0,.8,1.88,3.79,6.08,5.36,10.71,5.42l51.3.63,16.14-.87c6.65-.36,12.66-4.98,12.68-12.37l.27-92.62,37.95-.03.06,101.76c.19,7.56-2.05,13.82-4.31,20.26.41.18.51.59.53.78-2.47-.04-2.72,2.32-4.22,4.24-6.98,8.95-18.34,14.48-30.09,14.67l-32.97.52-24.04-.24-34.95.1c-20.07.06-39.71-15.39-39.79-34.48l-.39-107.81h2.38Z"/>
        <path d="M230.79,522.47l1.23-.52c0,1.32.99,1.94,2.17,2.86,4.95,3.83,8.03,8.7,10.71,14.57l47.63,104.09c.77,1.69.95,2.59,2.54,2.77-.1.13-.06.38-.08.55-.15,1.09-.14,2.41.48,3.76l4.92,10.56-25.36-.13-18.39.3-9.4-21.76-27.17.11-45.21.16-15.39-.26-8.97,22.27h-41.54c-1.42,0-2.39.14-2.89-.98-.05-.29-.07-.84,0-1.13l4.91-10.63,1.26-2.85,15.9-34.09c1.22-2.62,2.59-5.46,2.97-7.8.05-.28.18-.92.13-1.19,1.76-.19,1.87-1.65,2.64-3.33l28.55-62.26c4.8-10.47,13.63-18.45,25.65-18.5l24.98-.1c6.4-.02,12.44,1.26,17.75,3.51ZM233.37,607.38l-17.1-38.69-5.58-13.32c-1.77-2.66-4.28-4.29-7.19-4.27-2.45.02-5.75,1.46-7.03,4.36l-23.17,52.43,60.07-.5Z"/>
        <path d="M675.64,555.79c-1.62.51-3.39.92-5.61.93l-58.86.14-.26,105.03-38.63-.16c-1.18,0-1-3.31-.94-3.68-.73-3.03-.12-6.07-.12-9.07v-78.96s.13-9.03.13-9.03l-.15-1.94c-.06-.75-.22-1.61-.83-1.89-.82-.37-1.62-.29-2.33-.29l-8.98.02-5.03-.03-29.98-.03-3.05.05-8.91-.31c-.88-.03-2.79-.14-3.65-.95l.09-36.9,11.64.24h147.66c2.84.01,4.94-1.14,7.74-.28l.06,37.12Z"/>
        <path d="M941.03,661.22l-39,.03-13.48-.13.34-36.33,56.16.1,53.69-.23c6.12-.03,10.59-3.53,10.93-9.35.27-4.59-2.93-10.84-8.99-10.89l-77.64-.6c-10.2-.08-20.22-5.74-26.98-12.59-8.51-8.63-10.64-19.59-10.41-31.29.5-24.98,16.41-40.5,41.46-40.99l115.81.09.02,36.83-109.64.1c-5.86,1.42-8.67,5.51-8.48,10.96.2,5.85,3.51,9.14,9.24,9.17l70.3.36c16.14-.16,32.29,6.4,39.91,21.3,6.42,12.55,6.69,28.52.72,40.98-6.69,13.98-19.8,22.45-34.95,22.5l-40.04.14-28.97-.16Z"/>
        <g>
          <path d="M1345.85,559.83l-2,.74c-3.74,1.39-6.39,5.23-8.84,8.37l-.1,2.85c-1.22.14-2.04,1-2.6,2.45-6.88,17.72-2.83,39.61,14.59,47.88,7.72,3.66,15.83,2.18,24.15,2.16l49.08-.12c6.35-.02,12.3,1.79,18.96.62l-.1,36.73-10.97.44-41.88-.28c-4.13-.03-7.21-.72-11.42-.16-9.72,1.28-19.7.27-29.66-.54-15.4-1.26-28.48-9.07-38.35-20.69-20.64-24.28-21.87-64.58-5.48-91.93,1.56-2.61,4-4.41,3.93-7.3.39-.32.68-.59.94-.98,3.06-1.17,8.03-6.07,8.97-8.93.3-.12.86-.26,1.32.03,9.98-7.14,21.54-12.02,34.75-12.01l88.07.08-.07,35.94-16.16.82-64.93-.03c-4.57,0-9.84.63-12.21,3.86Z"/>
          <path d="M1269,603.99l-104.2.22-.53,17.79c-.05,1.57,1.27,2.8,3.02,2.8h101.86s0,36.25,0,36.25c-4.96.84-9.29.43-14.2-.1l-87.85.13-23.04.08c-9.98-1.17-18.03-8.82-18.05-19.34l-.17-99.86c-.02-11.92,8.82-22.75,21.26-22.77l94.86-.18,27.01.39.28,35.96h-43.2s-20.05,0-20.05,0l-41.12.34-.3,20.72,89.92-.06c5.05,0,9.67-1.29,14.63.56l-.15,27.08Z"/>
        </g>
      </g>
      <path class="cls-3" d="M904.39,797.13c-3.76-1.79-4.5-6.03-4.03-9.31.41-2.87,2.29-6.63,6-7.57,9.41-2.4,19.2-1.91,28.58.79.61-4.06.3-10.13-4.17-11.92-5.37-2.15-15.07-2.06-20.36.28-1.83.81-4.15,6.66-7.55,2.91-2.33-2.57,2.94-8.47,6.96-8.54l19.82-.34c6.34-.11,11.03,5.47,11.16,11.81l.5,23.4c-1.75.58-3.53.57-4.64.38-.83-.14-1.59-1.27-2.02-3.3-5.56,5.7-22.5,5.1-30.25,1.41ZM935.2,788.55c-.94-5.49-17.01-5.61-26.37-3.86-2.28.43-2.67,3.25-2.61,4.71.06,1.57.56,4.16,2.9,4.63,11.19,2.22,27.37,2.01,26.09-5.49Z"/>
      <path class="cls-3" d="M892.54,799.03l-37.04-.07c-.31-1.46-.75-4.36.28-5.25l29.22-25.42-27.62-.2-.07-4.3,34.92.09c.91.86,1.01,4.25-.07,5.2l-28.54,25.16,25.94.28c.82,0,2.37.05,2.74.54s.54,1.8.24,3.98Z"/>
      <path class="cls-3" d="M1102.96,795.66l2.32-4.1c.62-1.09,3.12-.73,5.3-.34,1.55,11.39-17.91,12.23-31.1,9.24-9.94-2.26-11.35-13.94-8.86-24.85,1.42-6.23,6.44-9.71,12.68-10.27,7.33-.66,15.28-1.46,21.74,2.74,5.34,3.47,6.68,11.07,5.21,16.78l-34.15.25c-.58,3.41-.15,8.85,3.6,10.27,7.09,2.69,15.6,2.13,23.27.28ZM1104.7,780.93c.35-6.39-2.77-9.87-7.87-10.77h-13.62c-5.52,0-8.54,5.42-7.15,10.85l28.63-.09Z"/>
      <path class="cls-1" d="M1568.15,786.82l-25.1.14-16.07,1.87-93.67.56c-8.1.05-17.04,2.45-15.38-3.87.96-3.66,6.09-1.7,15.09-1.44l17.17.51,100.06.88,16.31.4c.77.02,1.35.2,1.59.95Z"/>
      <path class="cls-1" d="M26.55,787.01l-26.55-.2c0-.26.12-.65.54-.91l15.29-.41,96.51-1.13,29.66-.53c2.12-.04,3.07-.69,4.54.28,1.3.86,2.49,4.47.63,4.96-7.92,2.1-15.87.18-24.15.15l-89.62-.35c-1.88-.81-4.07-1.84-6.85-1.86Z"/>
      <path class="cls-3" d="M349.23,799.41c-8.63-1.02-13.7-6.11-13.96-14.64-.16-5.43-.48-11.78,3.18-16.36,3.92-4.89,10.56-5.66,16.54-5.49,6.14.18,11.83-.31,16.99,3.37l.15-14.2,6.06.07v46.46c-1.91.67-3.24.61-4.75.43-1.19-.14-1.6-1.95-1.38-4.33-6.42,5.58-14.57,5.65-22.85,4.68ZM371.57,788.45c1.56-9.7,1.07-19.09-6.88-20.15-11.07-1.48-22.23-1.34-23.23,7.21-1.07,9.18-.73,17.74,6.33,18.87,9.98,1.6,22.41,1.64,23.78-5.94Z"/>
      <path class="cls-3" d="M1369.67,798.19c-10.28,6.43-31.97,5.16-35.88-4.91s-2.41-25.36,9.93-27.57l18.86-.27c8.8,1.04,13.05,8.1,12.58,16.63-.3,5.52.23,12.54-5.49,16.12ZM1366.52,794.04c4.08-4.33,4.84-21.77-3.87-23.55-5.35-1.09-10.95-.74-16.42-.3-10.31.83-9.57,18.36-5.84,23.42,3.39,4.59,21.92,4.92,26.13.44Z"/>
      <path class="cls-3" d="M762.21,797.27c-4.21-1.87-4.89-5.81-4.27-9.7.46-2.93,2.09-6.7,6.24-7.51,9.32-1.83,19.4-2.26,28.56,1.55.26-2.64.04-5.95-1.21-9.18-2.36-6.07-15.1-5.52-24.31-3.17-.72.99-1.14,3.2-2.11,3.5-1.23.39-3.8.59-5.13-.14-.71-4.13,2.57-8.62,7.05-8.75l19.61-.57c7.24-.21,11.95,6.01,12.03,13.17l.23,22.15c-1.76.57-3.04.53-4.44.42s-1.97-1.98-1.65-4.15c-5.23,6.75-21.86,6.24-30.59,2.36ZM792.82,788.68c-.71-5.57-17.77-5.98-26.99-3.74-2.73.66-3.1,7.66-.36,8.55,10.13,3.3,28.29,2.54,27.36-4.8Z"/>
      <path class="cls-3" d="M1220.62,798.82c-4.2-2.07-4.03-6.92-3.12-10.74,1.94-8.13,15.91-7.93,27.16-6.79,2.78.28,4.93,1.34,7.24,2.52.34-3.95.27-10.78-4.04-12.54-6.66-2.71-14.81-1.55-21.51-.25l-1.62,3.37c-.44.92-3.66,1.09-5.17.51-2.93-9.99,15.85-11.8,28.52-9.03,6.1,1.34,9.77,6.99,9.77,13.1v21.94c-2.22.23-4.22.28-5.08-.11s-.93-2.37-.91-3.79c-5.73,6.76-22.31,6.19-31.24,1.8ZM1252.04,790.58c-.61-5.42-18.1-5.98-27.11-3.51-2.99.82-2.76,7.78.32,8.64,10.16,2.83,27.65,2.51,26.79-5.13Z"/>
      <rect class="cls-2" x="282.53" y="772.5" width="47.04" height="6.1" transform="translate(-470.3847 1079.3427) rotate(-89.8332)"/>
      <path class="cls-3" d="M744.14,763.39c.97.03,4.08.41,4.09,1.54l.19,33.87c-2.63.41-4.19.31-6.09.03v-32.9s-.33-2.34-.33-2.34c-.05-.34.66-.46,1.04-.29.24-.2.88.07,1.11.08Z"/>
      <rect class="cls-3" x="742.17" y="752" width="6.16" height="5.99" transform="translate(-7.88 7.86) rotate(-.6)"/>
    </g>
  </g>
</svg>