<?xml version="1.0" encoding="UTF-8"?>
<svg id="Layer_2" data-name="Layer 2" xmlns="http://www.w3.org/2000/svg" viewBox="0 0 722.33 344.57">
  <defs>
    <style>
      .cls-1 {
        fill: #049ec3;
      }
    </style>
  </defs>
  <g id="Layer_1-2" data-name="Layer 1">
    <g>
      <g>
        <g>
          <path d="M517.05,172.5c-.72,0-1.66-.14-1.94.65-.31.86-.07,1.73-.04,2.41l.32,6.99-.27,75.69c-.01,3.77-2.85,5.47-6.01,5.46l-29.1-.11c-3.17-.01-6.01-2.72-6-6.37l.44-135.05c.04-11.63,3.03-22.47,7.01-32.41,11.16-27.86,40.69-40.91,70.63-41.03l65.88-.26c3.63-.01,5.88,2.73,5.87,6.02l-.08,26.08c0,2.02-1.31,5.78-3.92,5.8l-64.8.34c-6.98.04-13.58,1.58-19.89,4.09-16.76,6.67-21.24,25.44-19.76,43.31l101.57-.08c2.86,0,6.65,1.71,6.64,4.63l-.1,29.72c0,2.88-3.95,4.19-6.54,4.19l-99.94-.05Z"/>
          <path d="M321.24,195.48l-.09,63.02c0,2.21-1.3,3.71-2.34,4.38-1.38.89-5.2,1.5-5.69-.09l-8.48-27.64c-.95-3.08-3.25-5.06-5.37-5.78-8.18-2.78-10.6,6.48-18.79,10.61l.11-108.37c.01-13.1,2.3-25.02,6.64-36.96,8.45-23.25,27.05-39.48,51.2-45.63,21.66-5.52,44.15-5.37,65.89.23,38.18,9.83,56.12,43.03,56.21,81.38l.27,125.86c0,3.32-.96,7.01-4.8,7.04l-31.03.2c-2.62.03-5.17-2.02-5.18-4.87l-.12-63.21-98.43-.16ZM418.41,121.46l-.09-3.02c-2.05-16.81-13.41-30.18-30.55-33.65-23.02-4.65-49-1.38-60.18,20.36-3.64,7.07-5.76,14.82-5.9,22.83l-.52,29.96,98.59.04-.16-34.41c0-.6-.07-1.53-.21-1.9-.11-.28-.61-.4-.97-.21Z"/>
        </g>
        <path class="cls-1" d="M290.71,269.89c-6.56-2.2-12.66,2.49-18.29,5.39-4.61,2.46-9.4,4.58-14.32,6.26-12.27,4.3-25.01,6.66-37.99,6.8-6.73.25-13.25.25-19.66-1.14-18.75-3.63-36.89-10.47-52.85-21.16-10.22-7.25-20.28-15.29-29.11-24.14-5.14-5.43-10.29-12.31-14.62-19.17-3.24-5.38-7.39-11.09-7.74-17.42-.51-5.76,2.49-10.76,5.81-15.32,3.06-4.3,6.16-8.25,9.44-12.39,4.29-5.35,8.49-10,13.49-14.74,2.97-2.89,6.61-5.85,9.27-8.9,5.04-6.18-5.71.19-9.55,3.29-8.05,6.28-15.29,13.58-22.12,21.21-5.55,5.33-18.15,27.29-23.77,12.39-1.96-6.61-1.14-14.38-.35-21.25.96-7.1,2.63-14.09,4.88-20.89,7.97-24.64,19.49-44.87,42.52-58.05,9.41-5.96.69-3.46-3.71-1.32-10.99,5.32-20.78,14.68-28.12,24.77-2.55,3.31-5.04,7.58-8.04,10.32-4.73,4.15-2.86-5.48-2.14-10.47,7.79-48.35,42.02-91.34,89.14-106.81,44.62-14.63,94.26-7.57,126.14,28.32,8.04,8.79,2.96,12.45-5.96,15.69-7.53,2.94-14.48,6.91-21.89,10.21-9.97,4.62-13.44,7.21-6.83,17.43,2.82,4.6,6.77,10.19,7.95,13.3,1.72,4.6-2.36,3.49-7.35,2.35-21.34-6.01-42.25-3.85-61.22,7.83-29.18,17.04-41.73,51.07-38.26,84.41,2.63,34.29,27.31,61.72,59.95,71.08,21.08,6.48,44.81,1.2,62.18-12.04,10.97-9.35,13.1.49,16.43,10.99,1.17,3.81,2.31,7.62,3.39,11.47.95,3.75,4.85,16.56-2.57,11.47-3.7-2.5-8.74-8.22-13.97-9.72l-.18-.05ZM245.12,31.41c.14-8-9.09-13.39-16.03-9.48-7.59,3.82-7.49,15.58.18,19.26,6.94,3.73,16-1.66,15.86-9.58v-.2Z"/>
      </g>
      <path d="M319.42,282.54l399.67-.02,3.1-.25c.19,1.64.41,3.12-.95,4.96h-405.41s1.44-5,1.44-5c.56.24,1.53.3,2.16.3Z"/>
      <path d="M171.56,287.28l-169.27-.02c-1.84,0-2.32-1.36-2.29-2.21.06-1.84.9-2.53,3.15-2.53l159.55-.08c3.03,2.07,6.07,1.98,8.86,4.85Z"/>
      <g>
        <path d="M40.43,317.16c0,9.34-7,15.14-18.19,15.14h-8.44v11.55H4.11v-41.89h18.13c11.19,0,18.19,5.81,18.19,15.2ZM30.62,317.16c0-4.61-2.99-7.3-8.92-7.3h-7.9v14.54h7.9c5.92,0,8.92-2.69,8.92-7.24Z"/>
        <path d="M74.01,343.85l-8.08-11.67h-8.92v11.67h-9.69v-41.89h18.13c11.19,0,18.19,5.81,18.19,15.2,0,6.28-3.17,10.89-8.62,13.23l9.4,13.47h-10.41ZM64.91,309.86h-7.9v14.6h7.9c5.92,0,8.92-2.75,8.92-7.3s-2.99-7.3-8.92-7.3Z"/>
        <path d="M88.66,322.9c0-12.45,9.69-21.66,22.92-21.66s22.92,9.16,22.92,21.66-9.75,21.66-22.92,21.66-22.92-9.22-22.92-21.66ZM124.69,322.9c0-7.96-5.63-13.41-13.11-13.41s-13.11,5.45-13.11,13.41,5.63,13.41,13.11,13.41,13.11-5.45,13.11-13.41Z"/>
        <path d="M141.8,301.96h19.03c13.7,0,23.1,8.26,23.1,20.95s-9.4,20.95-23.1,20.95h-19.03v-41.89ZM160.36,335.89c8.32,0,13.76-4.97,13.76-12.99s-5.45-12.99-13.76-12.99h-8.86v25.97h8.86Z"/>
        <path d="M190.87,325.42v-23.46h9.69v23.1c0,7.96,3.47,11.25,9.34,11.25s9.34-3.29,9.34-11.25v-23.1h9.58v23.46c0,12.33-7.06,19.15-18.97,19.15s-18.97-6.82-18.97-19.15Z"/>
        <path d="M235.76,322.9c0-12.63,9.69-21.66,22.74-21.66,7.24,0,13.29,2.63,17.24,7.42l-6.22,5.75c-2.81-3.23-6.34-4.91-10.53-4.91-7.84,0-13.41,5.51-13.41,13.41s5.57,13.41,13.41,13.41c4.19,0,7.72-1.68,10.53-4.97l6.22,5.75c-3.95,4.85-9.99,7.48-17.3,7.48-12.99,0-22.68-9.04-22.68-21.66Z"/>
        <path d="M290.51,309.86h-13.41v-7.9h36.51v7.9h-13.41v33.99h-9.69v-33.99Z"/>
        <path d="M315.59,322.9c0-12.45,9.69-21.66,22.92-21.66s22.92,9.16,22.92,21.66-9.75,21.66-22.92,21.66-22.92-9.22-22.92-21.66ZM351.61,322.9c0-7.96-5.63-13.41-13.11-13.41s-13.11,5.45-13.11,13.41,5.63,13.41,13.11,13.41,13.11-5.45,13.11-13.41Z"/>
        <path d="M365.43,339.72l3.29-7.3c3.53,2.57,8.8,4.37,13.82,4.37,5.75,0,8.08-1.92,8.08-4.49,0-7.84-24.36-2.45-24.36-18.01,0-7.12,5.75-13.05,17.65-13.05,5.27,0,10.65,1.26,14.54,3.71l-2.99,7.36c-3.89-2.21-7.9-3.29-11.61-3.29-5.75,0-7.96,2.15-7.96,4.79,0,7.72,24.36,2.39,24.36,17.77,0,7-5.8,12.99-17.77,12.99-6.64,0-13.35-1.98-17.06-4.85Z"/>
        <path d="M423.84,301.96h19.03c13.7,0,23.1,8.26,23.1,20.95s-9.4,20.95-23.1,20.95h-19.03v-41.89ZM442.39,335.89c8.32,0,13.76-4.97,13.76-12.99s-5.45-12.99-13.76-12.99h-8.86v25.97h8.86Z"/>
        <path d="M505.7,336.07v7.78h-32.44v-41.89h31.66v7.78h-22.02v9.1h19.45v7.54h-19.45v9.69h22.8Z"/>
        <path d="M513.42,301.96h9.69v33.99h21.01v7.9h-30.7v-41.89Z"/>
        <path d="M604.62,343.85l-.06-25.13-12.33,20.71h-4.37l-12.27-20.17v24.6h-9.1v-41.89h8.02l15.68,26.03,15.44-26.03h7.96l.12,41.89h-9.1Z"/>
        <path d="M651.24,334.87h-19.45l-3.71,8.98h-9.93l18.67-41.89h9.58l18.73,41.89h-10.17l-3.71-8.98ZM648.18,327.51l-6.64-16.04-6.64,16.04h13.29Z"/>
        <path d="M696.18,343.85l-8.08-11.67h-8.92v11.67h-9.69v-41.89h18.13c11.19,0,18.19,5.81,18.19,15.2,0,6.28-3.17,10.89-8.62,13.23l9.4,13.47h-10.41ZM687.08,309.86h-7.9v14.6h7.9c5.92,0,8.92-2.75,8.92-7.3s-2.99-7.3-8.92-7.3Z"/>
      </g>
    </g>
  </g>
</svg>