<?xml version="1.0" encoding="UTF-8" standalone="no"?>
<svg
   version="1.1"
   id="Layer_1"
   x="0px"
   y="0px"
   width="400"
   viewBox="0 0 400 143.21797"
   enable-background="new 0 0 2500 1000"
   xml:space="preserve"
   sodipodi:docname="calibre_nuevo.svg"
   height="143.21797"
   inkscape:version="1.2.2 (b0a8486541, 2022-12-01)"
   inkscape:export-filename="calibre_nuevo.png"
   inkscape:export-xdpi="96"
   inkscape:export-ydpi="96"
   xmlns:inkscape="http://www.inkscape.org/namespaces/inkscape"
   xmlns:sodipodi="http://sodipodi.sourceforge.net/DTD/sodipodi-0.dtd"
   xmlns="http://www.w3.org/2000/svg"
   xmlns:svg="http://www.w3.org/2000/svg"><defs
   id="defs39" /><sodipodi:namedview
   id="namedview37"
   pagecolor="#ffffff"
   bordercolor="#666666"
   borderopacity="1.0"
   inkscape:showpageshadow="2"
   inkscape:pageopacity="0.0"
   inkscape:pagecheckerboard="0"
   inkscape:deskcolor="#d1d1d1"
   showgrid="false"
   inkscape:zoom="1.14"
   inkscape:cx="273.24561"
   inkscape:cy="222.80702"
   inkscape:window-width="1920"
   inkscape:window-height="1011"
   inkscape:window-x="0"
   inkscape:window-y="0"
   inkscape:window-maximized="1"
   inkscape:current-layer="Layer_1" />

<path
   fill="#f93822"
   opacity="1"
   stroke="none"
   d="m 48.708902,51.009313 c -0.0371,0.24222 0.0129,0.56232 -0.12401,0.71528 -3.3089,3.69812 -5.39838,8.03555 -6.63286,12.79375 -0.79144,3.05052 -1.01593,6.19586 -0.75271,9.32065 0.41474,4.92363 1.87529,9.5343 4.53942,13.75376 1.4247,2.25645 3.03473,4.34627 4.97104,6.16207 4.16493,3.90572 9.07021,6.480797 14.63384,7.726567 2.83965,0.63584 5.76039,0.76602 8.65248,0.53853 3.50766,-0.2759 6.87737,-1.16142 10.11449,-2.624297 3.95455,-1.78712 7.38089,-4.27378 10.22225,-7.50516 1.43744,-1.63473 2.55344,-3.55208 3.81531,-5.34127 0.21843,-0.30971 0.43949,-0.61757 0.72556,-1.01927 0.35634,0.29164 0.68426,0.51638 0.96072,0.79261 9.328728,9.32062 18.652618,18.646067 27.976958,27.971087 0.74209,0.74214 0.79944,1.05659 0.11986,1.87471 -1.16737,1.40534 -2.32875,2.82428 -3.60193,4.13104 -1.86703,1.91626 -3.70103,3.90063 -5.78294,5.56314 -3.10217,2.4772 -6.33197,4.81554 -9.65327,6.99024 -2.36476,1.54838 -4.91173,2.8548 -7.48072,4.04638 -3.806888,1.76572 -7.745828,3.22857 -11.846898,4.17854 -2.32742,0.53912 -4.67756,0.98371 -7.02494,1.43171 -1.22583,0.23394 -2.46783,0.3831 -3.73559,0.63268 -4.21598,0.0707 -8.3989,0.0793 -12.66467,0.075 -0.77731,-0.18116 -1.4633,-0.41184 -2.16764,-0.50748 -4.36716,-0.59302 -8.52178,-1.88847 -12.55411,-3.6432 -4.16437,-1.81219 -7.96158,-4.21651 -11.41048,-7.13979 -4.41553,-3.74258 -8.09084,-8.14449 -10.98927,-13.15837 -2.84081,-4.91422 -4.77799,-10.16024 -5.79602,-15.77221 -0.72019,-3.970017 -0.87632,-7.962667 -0.62755,-11.939827 0.34994,-5.59434 1.68245,-11.00024 3.92684,-16.17315 1.92143,-4.42852 4.35117,-8.54488 7.44181,-12.23695 2.71987,-3.24915 5.77583,-6.18184 9.30571,-8.5589 1.6412,-1.10519 3.39026,-2.05022 5.21014,-3.07088 0.15621,-0.004 0.19269,-0.006 0.22918,-0.007 z"
   id="path2"
   style="stroke-width:0.179062" />
<path
   fill="#f93822"
   opacity="1"
   stroke="none"
   d="m 43.678572,137.47402 c -0.53059,-0.13351 -1.09745,-0.18813 -1.58615,-0.41278 -4.71337,-2.16668 -9.1581,-4.78172 -13.31482,-7.89963 -3.51308,-2.63512 -6.76313,-5.55515 -9.77296,-8.7407 -1.33113,-1.40885 -2.53867,-2.93448 -3.92946,-4.55526 2.03241,-2.02707 4.01981,-4.00925 6.0072,-5.99143 -0.0317,-0.0539 -0.0634,-0.10771 -0.0952,-0.16157 -2.41351,1.37585 -4.82703,2.7517 -7.33958,4.184 -3.02086,-4.08191 -5.5182802,-8.48283 -7.6427702,-13.22747 4.0846402,-2.365357 8.1392702,-4.713337 12.1938902,-7.061307 -0.0275,-0.0764 -0.0549,-0.15278 -0.0824,-0.22916 -4.5008,1.20081 -9.0015902,2.40163 -13.6007102,3.62868 -1.70666,-4.45415 -2.92632,-9.07002 -3.67768995,-13.85242 6.48104995,-1.73718 12.87837015,-3.45193 19.27569015,-5.16667 -0.005,-0.0373 -0.01,-0.0747 -0.0149,-0.112 -6.64035,0 -13.2807102,0 -20.00301015,9e-5 -0.0905,-4.12301 -0.0992,-8.24609 -0.0948000004,-12.45204 C 8.4888718,65.341453 16.963922,65.341453 25.438972,65.341453 c 0.0102,-0.0438 0.0204,-0.0876 0.0306,-0.13137 -8.13857,-2.18233 -16.2771502,-4.36466 -24.56841015,-6.58794 0.99895995,-3.7366 1.97342995,-7.38163 2.97240995,-11.11828 9.4684402,2.53496 18.7394602,5.01707 28.0104802,7.49917 0.0248,-0.0558 0.0496,-0.11167 0.0744,-0.1675 -1.59188,-0.916 -3.18581,-1.82846 -4.77519,-2.74877 -2.9066,-1.68304 -5.80744,-3.37605 -8.71643,-5.05495 -2.88352,-1.6642 -5.77481,-3.31493 -8.6611702,-4.97421 -0.78508,-0.45133 -1.59199,-0.87381 -2.32703,-1.3965 -0.17787,-0.12649 -0.25352,-0.67558 -0.13303,-0.89947 1.1492,-2.13531 2.34165,-4.24763 3.5423402,-6.35477 0.40331,-0.70778 0.86585,-1.38181 1.37027,-2.18045 9.20257,5.31031 18.36233,10.59591 27.52208,15.88151 0.0575,-0.0588 0.11505,-0.11763 0.17258,-0.17645 -0.21198,-0.24033 -0.41164,-0.49296 -0.63772,-0.71918 -7.00395,-7.00814 -14.00339,-14.02081 -21.0293,-21.00688 -0.60078,-0.59737 -0.64739,-0.93662 -0.0159,-1.5498 1.49172,-1.44849 2.88899,-2.99379 4.34491,-4.4799 0.45283,-0.46222 0.95166,-0.88673 1.47201,-1.27085 0.15089,-0.11139 0.47744,-0.0894 0.67265,-0.007 0.20413,0.0857 0.34792,0.31632 0.51665,0.48504 7.85034,7.84997 15.70091,15.6997 23.54863,23.55226 0.21982,0.21995 0.40897,0.47054 0.61242,0.70685 0.0826,-0.0587 0.16527,-0.11747 0.24791,-0.17621 -0.2188,-0.45574 -0.40813,-0.92856 -0.66095,-1.36457 -2.59339,-4.47263 -5.19967,-8.9378 -7.7972,-13.40805 -2.81725,-4.8484 -5.6303,-9.69925 -8.44015,-14.55194 -0.17543,-0.30297 -0.36737,-0.61845 -0.43847,-0.95222 -0.0495,-0.23224 0.0103,-0.64607 0.1655,-0.73984 2.29479,-1.38607 4.61376,-2.7320901 7.01213,-4.1374901 6.56653,11.3671001 13.04378,22.5796501 19.52102,33.7922101 0.0845,-0.0265 0.16903,-0.053 0.25354,-0.0795 -0.39157,-2.51785 -1.23886,-4.93522 -1.86118,-7.40014 -0.63399,-2.51115 -1.36684,-4.99718 -2.03612,-7.49964 -0.66968,-2.50398 -1.30372,-5.01749 -1.97281,-7.52163 -0.6687,-2.5027 -1.36853,-4.99708 -2.04169,-7.49861 -0.67305,-2.5010801 -1.32997,-5.0065001 -2.02492,-7.6267601 0.70615,-0.25775 1.38774,-0.56597 2.10096,-0.75466 1.54798,-0.40953 3.12877,-0.70199 4.66174,-1.15798 0.64557,-0.19203 0.746,0.0401 0.87767,0.53763 0.67781,2.56111 1.37938,5.11592 2.0683,7.6741 1.22642,4.5541301 2.45345,9.1081101 3.6733,13.6640101 1.22753,4.58463 2.44614,9.17165 3.66975,13.75734 0.34478,1.2921 0.69337,2.5832 1.07281,3.99617 -0.64518,0.11015 -1.28692,0.26655 -1.93735,0.32305 -3.77793,0.32821 -7.41662,1.26425 -10.97858,2.51601 -3.59443,1.26317 -6.98834,2.94206 -10.22583,4.95803 -4.19207,2.61041 -7.8701,5.83 -11.19487,9.44628 -2.62147,2.85132 -4.84507,6.01052 -6.7555,9.39249 -1.9188,3.39678 -3.562,6.91645 -4.57222,10.68166 -0.73119,2.72522 -1.29021,5.5057 -1.75607,8.28996 -0.33409,1.99673 -0.52824,4.04055 -0.52694,6.06321 0.001,2.11255 0.23882,4.23417 0.50701,6.33473 0.26973,2.112587 0.58208,4.234227 1.09034,6.299077 1.36076,5.52827 3.58787,10.69098 6.64065,15.5197 2.3824,3.76836 5.16347,7.19565 8.46329,10.15453 2.19609,1.96918 4.67296,3.62487 7.01767,5.42928 0.21943,0.16886 0.39224,0.39825 0.54422,0.67954 -0.0816,0.10916 -0.10927,0.1467 -0.12557,0.19266 z"
   id="path4"
   style="stroke-width:0.179062" />
<path
   fill="#002e5d"
   opacity="1"
   stroke="none"
   d="m 399.83925,76.170753 c -0.46265,0.14111 -0.92911,0.26358 -1.39573,0.26441 -6.95056,0.0123 -13.90111,0.008 -20.85166,0.008 -0.35436,0 -0.70873,0 -1.26475,0 0.16472,1.17159 0.22981,2.28139 0.48721,3.34463 0.77649,3.20726 2.22434,6.08121 4.70235,8.31217 2.86994,2.58388 6.19081,3.81695 10.13066,3.24766 2.47211,-0.3572 4.7973,-0.98457 6.90565,-2.37088 0.21727,-0.14284 0.7462,0.18837 1.27901,0.34259 -1.81571,2.13627 -3.7617,3.67027 -5.9181,4.93557 -2.36772,1.38929 -4.88425,2.49158 -7.61976,2.79807 -2.10215,0.23551 -4.24757,0.2289 -6.36589,0.14113 -3.0994,-0.12842 -5.90499,-1.28986 -8.43699,-3.01311 -3.87834,-2.63948 -6.28663,-6.35125 -7.27327,-10.90935 -1.19691,-5.53005 -0.8143,-10.91357 2.03543,-15.94288 1.52129,-2.68485 3.66838,-4.77436 6.31706,-6.34885 3.76918,-2.24061 7.89706,-3.06373 12.20832,-2.77557 6.6187,0.44238 12.43214,4.31509 14.65744,10.99482 0.0636,0.19072 0.16905,0.36749 0.30973,0.58158 0.12419,1.81724 0.20336,3.60339 0.25355,5.39034 0.009,0.3062 -0.10632,0.61588 -0.16026,0.99918 m -18.42339,-15.95004 c -1.24342,0.72502 -1.92658,1.92516 -2.5007,3.15349 -1.22222,2.615 -1.88378,5.40939 -2.32309,8.24832 -0.17806,1.15046 -0.167,2.33018 -0.24857,3.59933 3.92241,-0.64084 7.66501,-1.25232 11.44096,-1.86924 0.0191,-0.26586 0.0733,-0.47465 0.0421,-0.66973 -0.40035,-2.50026 -0.68621,-5.02828 -1.26314,-7.48779 -0.4512,-1.92342 -1.45995,-3.63468 -3.20808,-4.75507 -0.55061,-0.35289 -1.13112,-0.70924 -1.93948,-0.21931 z"
   id="path6"
   style="stroke-width:0.179062" />
<path
   fill="#f93822"
   opacity="1"
   stroke="none"
   d="M 74.928502,9.2285233e-4 C 75.011402,13.781053 75.011402,27.548273 75.011402,41.227693 c -2.30488,0 -4.49513,0 -6.80483,0 0,-13.75592 0,-27.40295 -9e-5,-41.13192015 2.213,-0.0906 4.42606,-0.0992 6.72202,-0.0948999977 z"
   id="path8"
   style="stroke-width:0.179062" />
<path
   fill="#002e5d"
   opacity="1"
   stroke="none"
   d="m 285.55276,97.255573 c -0.94783,-0.77003 -0.28737,-1.66536 -0.2386,-2.4459 0.11395,-1.82376 0.50184,-3.63032 0.61756,-5.45407 0.83708,-13.19458 0.15082,-26.40512 0.37946,-39.60663 0.01,-0.58098 -0.10792,-0.98458 -0.6589,-1.32722 -0.90206,-0.56099 -1.71753,-1.25989 -2.58433,-1.87988 -0.23548,-0.16844 -0.52412,-0.26255 -0.78836,-0.39076 0.0847,-0.14821 0.16936,-0.29641 0.25406,-0.44461 5.38126,-1.36687 10.76252,-2.73375 16.3166,-4.14452 0,7.63082 0,15.03379 0,22.68912 0.56379,-0.67506 0.95756,-1.13585 1.33978,-1.60607 1.78727,-2.19887 4.07805,-3.60727 6.84069,-4.16239 4.14549,-0.83301 7.95515,-0.0252 11.29554,2.62918 3.45978,2.74923 5.14034,6.53138 5.90555,10.74166 0.36862,2.02814 0.56751,4.12181 0.53596,6.18111 -0.0757,4.94626 -1.32325,9.5837 -4.57343,13.44121 -2.48042,2.94392 -5.6638,4.89344 -9.49814,5.53686 -5.61565,0.94232 -11.04076,0.30906 -16.16506,-2.30848 -0.10603,-0.0542 -0.23651,-0.0862 -0.31329,-0.1682 -1.19088,-1.27123 -2.33374,-0.74717 -3.5306,0.0265 -1.39331,0.90062 -2.82867,1.7372 -4.26265,2.57266 -0.22785,0.13275 -0.54418,0.11368 -0.87184,0.12045 m 23.94063,-28.49406 c -0.0874,-0.11994 -0.18193,-0.23534 -0.26114,-0.36046 -2.35386,-3.71848 -7.01143,-4.55649 -9.92293,-1.84527 -0.2402,0.22367 -0.4502,0.62185 -0.45114,0.93961 -0.0245,8.29395 -0.0222,16.58797 -0.008,24.88195 5e-4,0.30003 0.0896,0.66557 0.27314,0.8893 1.6238,1.97986 4.11156,2.51818 6.42024,1.40269 2.46722,-1.19214 3.75259,-3.38208 4.74572,-5.7772 1.32808,-3.20295 1.65112,-6.5661 1.64859,-10.0122 -0.003,-3.54757 -0.6641,-6.88873 -2.44462,-10.11842 z"
   id="path10"
   style="stroke-width:0.179062" />
<path
   fill="#002e5d"
   opacity="1"
   stroke="none"
   d="m 185.44537,86.071023 c 1.11125,-1.4285 2.25585,-2.75928 3.22074,-4.20959 0.93988,-1.41275 1.69584,-2.94784 2.53257,-4.42922 0.11281,0.0446 0.22565,0.0891 0.33846,0.13369 0,0.30536 0.0514,0.62106 -0.008,0.91454 -0.92582,4.60144 -1.85455,9.20241 -2.82438,13.79467 -0.0772,0.36554 -0.38892,0.79965 -0.71421,0.97644 -3.36107,1.82669 -6.95663,2.9565 -10.7221,3.62709 -2.88742,0.51423 -5.79469,0.66493 -8.69551,0.48853 -5.97248,-0.36321 -11.5562,-1.99812 -16.33203,-5.75992 -4.61267,-3.6333 -7.37353,-8.39569 -8.50646,-14.16886 -0.56213,-2.86451 -0.67523,-5.74678 -0.45571,-8.60566 0.41029,-5.34285 2.2105,-10.24022 5.63953,-14.41752 2.63711,-3.21257 5.92772,-5.57973 9.7752,-7.2217 2.72662,-1.16361 5.54819,-1.89218 8.46215,-2.23456 4.33987,-0.50991 8.64412,-0.193 12.84294,1.05482 1.69893,0.5049 3.35036,1.17539 5.00743,1.81209 0.50258,0.1931 0.77135,0.14783 1.11019,-0.31933 0.43293,-0.59689 1.00784,-1.09607 1.55379,-1.60261 0.16989,-0.15762 0.44442,-0.20243 0.68237,-0.30371 0.0886,0.16994 0.15834,0.24295 0.16142,0.31869 0.0716,1.75143 0.13185,3.5033 0.20241,5.25477 0.11707,2.90729 0.23102,5.81474 0.36449,8.72129 0.0569,1.23894 0.15971,2.47579 0.24168,3.71358 -0.10153,0.0521 -0.20306,0.10417 -0.30459,0.15625 -0.16625,-0.18916 -0.40466,-0.3511 -0.4879,-0.57161 -1.12963,-2.99278 -2.68554,-5.73799 -4.65312,-8.26129 -2.37758,-3.04908 -5.17073,-5.60496 -8.52395,-7.56264 -2.45448,-1.43299 -4.91153,-1.09336 -7.3426,-0.11785 -3.22358,1.29354 -5.45427,3.68695 -7.09291,6.70809 -1.73181,3.19289 -2.78948,6.59378 -3.16865,10.18704 -0.27326,2.58965 -0.5783,5.20354 -0.50551,7.7964 0.15376,5.47786 1.01262,10.85517 3.56452,15.79926 1.43149,2.77338 3.3474,5.15797 6.1797,6.67549 3.20825,1.71899 6.38993,1.97447 9.44997,-0.26049 1.83833,-1.34267 3.63068,-2.76267 5.33258,-4.27311 1.30032,-1.15404 2.4263,-2.50454 3.67517,-3.81306 z"
   id="path12"
   style="stroke-width:0.179062" />
<path
   fill="#002e5d"
   opacity="1"
   stroke="none"
   d="m 211.20493,96.627823 c -3.999,1.62835 -8.80944,0.6862 -11.66294,-2.29642 -2.04127,-2.13363 -3.02108,-4.78381 -3.47448,-7.646 -0.18001,-1.13639 -0.24532,-2.29077 -0.36991,-3.4362 -0.0725,-0.66654 0.21889,-1.02042 0.85726,-1.23721 6.42573,-2.18234 12.84421,-4.38608 19.26428,-6.58511 0.25214,-0.0864 0.50314,-0.17779 0.74893,-0.2806 1.69325,-0.70822 1.66846,-0.70977 1.69825,-2.6075 0.0491,-3.13032 -0.13742,-6.22828 -1.25448,-9.19144 -0.51216,-1.35861 -1.1017,-2.69438 -2.55815,-3.39519 -3.64179,3.4002 -7.276,6.73781 -10.2349,10.72248 -0.8467,1.14024 -1.67663,2.29309 -2.53489,3.42449 -0.16099,0.21225 -0.42009,0.3501 -0.63393,0.52227 -0.16704,-0.23284 -0.39854,-0.44266 -0.49109,-0.70206 -0.85623,-2.39968 -1.68767,-4.80819 -2.52816,-7.21349 -0.24427,-0.69902 -0.45408,-1.41392 -0.75404,-2.08847 -0.26619,-0.59859 -0.0674,-0.9003 0.44206,-1.22765 3.5563,-2.28512 7.36369,-3.97331 11.54931,-4.64032 2.0971,-0.33418 4.24482,-0.59148 6.35885,-0.52742 4.24152,0.12853 8.10727,1.42117 11.11196,4.60119 2.27248,2.40509 3.71558,5.31274 3.83027,8.5962 0.22249,6.37005 0.18553,12.74978 0.20499,19.12566 0.003,0.92325 0.19254,1.56996 1.02438,2.06535 0.75706,0.45083 1.42611,1.05203 2.12061,1.60372 0.19448,0.15448 0.34184,0.36826 0.68021,0.74187 -1.17252,0.24359 -2.12842,0.46813 -3.09396,0.63804 -3.37053,0.59321 -6.74637,1.1565 -10.11553,1.75739 -0.76818,0.13702 -1.18869,-0.003 -1.35984,-0.86995 -0.34855,-1.76624 -0.80657,-3.51099 -1.22644,-5.26292 -0.0502,-0.20944 -0.14363,-0.40853 -0.31148,-0.8748 -1.85342,2.96518 -4.24789,4.96269 -7.28714,6.28409 m -2.79588,-15.25785 c -0.32036,0.1576 -0.68989,0.26019 -0.94626,0.48936 -0.22534,0.20143 -0.47898,0.55949 -0.45367,0.82273 0.17239,1.79128 0.6818,3.47344 1.79163,4.93706 1.35479,1.78664 4.51546,3.48493 7.25868,2.30649 1.70028,-0.73039 2.2014,-1.29251 2.2014,-3.08243 0,-3.1918 0,-6.38359 0,-9.57539 0,-0.31251 0,-0.62501 0,-1.19798 -3.38782,1.82126 -6.5618,3.52756 -9.85178,5.30016 z"
   id="path14"
   style="stroke-width:0.179062" />
<path
   fill="#002e5d"
   opacity="1"
   stroke="none"
   d="m 253.35702,58.179313 c 0,11.5756 0.0102,23.06171 -0.0213,34.5477 -0.002,0.82731 0.25684,1.32159 0.93888,1.72878 0.8722,0.52074 1.69899,1.11752 2.54536,1.68154 -0.0307,0.0817 -0.0615,0.16347 -0.0923,0.2452 -6.47492,0 -12.94986,0 -19.69737,0 0.38663,-0.34109 0.5896,-0.55842 0.82856,-0.72374 0.70663,-0.48894 1.40091,-1.00551 2.15097,-1.41882 0.62344,-0.34353 0.83116,-0.76384 0.83,-1.48168 -0.0231,-14.29043 -0.0213,-28.58091 -0.004,-42.87136 7.6e-4,-0.65188 -0.12671,-1.10674 -0.71415,-1.47465 -0.82543,-0.51697 -1.59869,-1.12026 -2.37255,-1.71487 -0.28438,-0.21851 -0.507,-0.5174 -0.92769,-0.95728 5.62733,-1.42039 11.00842,-2.77863 16.53569,-4.17378 0,5.67763 0,11.10053 0,16.61296 z"
   id="path16"
   style="stroke-width:0.179062" />
<path
   fill="#002e5d"
   opacity="1"
   stroke="none"
   d="m 360.05798,59.253343 c 0.007,4.20713 0.018,8.41425 0.0158,12.62138 -3.9e-4,0.81275 -0.22295,0.93481 -0.88058,0.53326 -4.93312,-3.01214 -10.30792,-1.78881 -13.87382,2.25691 -0.18824,0.21356 -0.2703,0.58902 -0.27108,0.88947 -0.0154,5.84847 -0.0218,11.69705 0.0133,17.54534 0.002,0.36344 0.27781,0.826 0.57067,1.06648 0.6613,0.54298 1.41628,0.97104 2.12636,1.45579 0.25448,0.17369 0.48945,0.37596 0.64784,0.76838 -6.51995,0 -13.03989,0 -19.55984,0 -0.0444,-0.0535 -0.0888,-0.10705 -0.13318,-0.16058 0.72038,-0.50465 1.38673,-1.12758 2.17347,-1.487 1.27228,-0.58125 1.66856,-1.40331 1.65501,-2.82458 -0.0801,-8.38409 -0.0571,-16.76941 -0.0137,-25.15404 0.005,-0.89551 -0.34189,-1.42494 -0.98493,-1.90291 -0.7359,-0.54698 -1.4666,-1.10209 -2.17812,-1.68003 -0.18405,-0.1495 -0.28794,-0.39772 -0.42864,-0.60058 0.23587,-0.14675 0.45368,-0.3616 0.71043,-0.42963 2.31456,-0.61341 4.63542,-1.20326 6.95556,-1.79558 2.03397,-0.51926 4.06885,-1.03493 6.1044,-1.54796 0.95432,-0.24054 1.14292,-0.0642 1.26572,0.87921 0.25128,1.93079 0.63834,3.84665 0.82261,5.78264 0.17705,1.86005 0.17032,3.73769 0.23991,5.60776 0.0118,0.31841 0.002,0.63762 0.002,0.95646 0.0762,0.0244 0.1524,0.0488 0.22855,0.0732 0.21176,-0.44629 0.44971,-0.8822 0.63105,-1.34052 1.44592,-3.65467 3.2027,-7.12895 5.65641,-10.23344 1.65078,-2.08858 4.21295,-2.87517 7.0302,-1.9248 0.54506,0.26639 1.01003,0.45589 1.47491,0.64539 z"
   id="path18"
   style="stroke-width:0.179062" />
<path
   fill="#002e5d"
   opacity="1"
   stroke="none"
   d="m 276.63511,74.115843 c 0,6.26288 0.0151,12.43632 -0.0198,18.60947 -0.004,0.73892 0.17677,1.23388 0.8048,1.61209 0.65896,0.39681 1.28771,0.84436 1.92356,1.27866 0.25373,0.17329 0.49116,0.37046 0.6622,0.76675 -6.47398,0 -12.94796,0 -19.68373,0 0.3726,-0.33495 0.5707,-0.55702 0.80939,-0.71948 0.75887,-0.51652 1.52653,-1.02091 2.30348,-1.50987 0.45471,-0.28617 0.68547,-0.60554 0.68361,-1.20758 -0.0261,-8.61875 -0.0222,-17.23762 -0.008,-25.85642 9.6e-4,-0.5921 -0.15314,-0.96827 -0.68432,-1.31323 -0.94044,-0.61075 -1.80517,-1.33991 -2.68578,-2.03944 -0.16253,-0.12911 -0.36946,-0.37608 -0.33965,-0.52553 0.0307,-0.15385 0.30934,-0.31884 0.50755,-0.36982 4.86478,-1.25109 9.73226,-2.4918 14.60369,-3.71678 0.30527,-0.0768 0.64663,-0.01 1.1234,-0.01 0,4.98126 0,9.94645 0,15.00117 z"
   id="path20"
   style="stroke-width:0.179062" />
<path
   fill="#f93822"
   opacity="1"
   stroke="none"
   d="m 85.225692,9.4903229 c 0.72277,-2.67822 1.43742,-5.28209 2.16111,-7.91891 1.89132,0.50956 3.68265,0.99218 5.63947,1.51938 -3.57067,13.3315701 -7.12649,26.6077201 -10.66649,39.8248101 -1.80427,-0.42728 -3.47403,-0.81563 -5.13968,-1.22091 -0.60419,-0.14702 -0.45389,-0.62149 -0.3521,-1.00918 0.64306,-2.44925 1.30809,-4.89273 1.9604,-7.33956 1.83705,-6.89087 3.6693,-13.78302 5.50912,-20.67313 0.27775,-1.04021 0.58595,-2.0723 0.88817,-3.1825001 z"
   id="path22"
   style="stroke-width:0.179062" />
<path
   fill="#f93822"
   opacity="1"
   stroke="none"
   d="m 102.71331,12.823383 c 0.8087,-1.36254 1.6164,-2.65009 2.33042,-3.9876701 0.29469,-0.55203 0.59831,-0.46952 0.98744,-0.24357 1.18282,0.6868 2.35744,1.38777 3.61847,2.1323601 -6.86667,11.89235 -13.721198,23.76364 -20.645008,35.75493 -1.39068,-0.80372 -2.74332,-1.58546 -4.22926,-2.44423 0.46457,-0.8766 0.90936,-1.78114 1.41183,-2.6524 1.8958,-3.28714 3.8097,-6.56383 5.71799,-9.84374 2.3342,-4.01195 4.67722,-8.01878 7.0014,-12.03652 1.271988,-2.19885 2.512988,-4.41564 3.806718,-6.67916 z"
   id="path24"
   style="stroke-width:0.179062" />
<path
   fill="#002e5d"
   opacity="1"
   stroke="none"
   d="m 277.30318,51.658143 c -1.78092,3.21299 -5.27097,4.28245 -8.41837,3.68819 -1.18963,-0.22461 -2.41292,-0.6548 -3.4384,-1.28718 -2.32112,-1.43134 -3.16209,-3.83161 -2.91719,-6.42345 0.25738,-2.72415 1.80931,-4.60108 4.27985,-5.65802 3.22404,-1.37929 8.31111,-0.8968 10.41501,2.95554 1.17752,2.15612 1.12342,4.42592 0.0791,6.72492 z"
   id="path26"
   style="stroke-width:0.179062" />
<path
   fill="#f93822"
   opacity="1"
   stroke="none"
   d="m 113.64376,26.798663 c 2.25847,-2.2592 4.48302,-4.46297 6.677,-6.69677 0.4557,-0.46396 0.75829,-0.51921 1.2242,-0.0174 0.70627,0.7606 1.48414,1.45472 2.27174,2.21588 -0.26965,0.29202 -0.45896,0.51181 -0.66347,0.7164 -9.25574,9.25827 -18.51828,18.50974 -27.757008,27.78494 -0.5988,0.60116 -0.9627,0.67333 -1.54729,0.0118 -0.63583,-0.71951 -1.39305,-1.33176 -2.16556,-2.0546 7.37914,-7.37907 14.647388,-14.64726 21.960388,-21.96022 z"
   id="path28"
   style="stroke-width:0.179062" />
<path
   fill="#002e5d"
   opacity="1"
   stroke="none"
   d="m 360.03183,59.199303 c -0.43873,-0.13546 -0.9037,-0.32496 -1.37697,-0.57735 0.44472,0.13251 0.8978,0.3279 1.37697,0.57735 z"
   id="path30"
   style="stroke-width:0.179062" />
<path
   fill="#f93822"
   opacity="1"
   stroke="none"
   d="m 48.691542,50.965103 c -0.0191,0.0455 -0.0556,0.0469 -0.14687,0.0462 0.007,-0.0315 0.0681,-0.0609 0.14687,-0.0462 z"
   id="path32"
   style="stroke-width:0.179062" />
<path
   fill="#f93822"
   opacity="1"
   stroke="none"
   d="m 43.723632,137.47835 c -0.0288,-0.0503 -0.001,-0.0878 0.0694,-0.13336 0.0128,0.035 -0.006,0.0863 -0.0694,0.13336 z"
   id="path34"
   style="stroke-width:0.179062" />

</svg>
