<?xml version="1.0" encoding="UTF-8"?>
<svg id="Layer_2" data-name="Layer 2" xmlns="http://www.w3.org/2000/svg" viewBox="0 0 317.61 96.31">
  <defs>
    <style>
      .cls-1 {
        fill: #3257a5;
      }
    </style>
  </defs>
  <g id="Layer_1-2" data-name="Layer 1">
    <g>
      <path class="cls-1" d="M78.19,95.55l-78.19-.33V.95s90.6.21,90.6.21c25.75,5.74,41.57,27.83,38.44,52.78-3.16,25.17-24.6,41.72-50.85,41.6ZM66.73,70.37c10.42-2.48,16.56-12.35,15.4-22.04-1.07-8.94-8.62-17.56-18.39-17.58l-16.28-.04v40.08s19.27-.42,19.27-.42Z"/>
      <path class="cls-1" d="M211.85,70.46c-1.69-8.19-1.48-14.88-.8-22.54l44.53-.18-.23,37.03c-15.55,7.61-32.3,10.16-49.64,11.45-4.25.32-7.9-.34-12.01-.29-26.22.32-48.06-17.64-50.42-43.95S162.53.49,191.65.04c22.04-.34,43.44,1.78,64.94,6.43l-.04,30.74-20.97-2.69c-10.45-1.34-20.42-1.83-31.01-1.03-7.66.58-14.31,4.28-17.14,10.84s-1.93,14.74,3.25,20.48,13.27,7.05,21.17,5.66Z"/>
      <rect class="cls-1" x="246.3" y="24.21" width="94.58" height="47.99" transform="translate(245.21 341.76) rotate(-89.97)"/>
    </g>
  </g>
</svg>