<?xml version="1.0" encoding="UTF-8"?>
<svg id="Layer_2" data-name="Layer 2" xmlns="http://www.w3.org/2000/svg" viewBox="0 0 238.16 238.16">
  <defs>
    <style>
      .cls-1 {
        fill: #27aac6;
      }

      .cls-2 {
        fill: #fff;
      }
    </style>
  </defs>
  <g id="Capa_1" data-name="Capa 1">
    <g>
      <rect class="cls-1" width="238.16" height="238.16"/>
      <path class="cls-2" d="M135.37,121.85c5.48-14.98,12.24-39.1,10.23-54.26-2.19-16.99-23.2-8.77-26.31,10.05-1.46,8.59.91,18.64,7.86,25.94,1.64,2.01-.73,4.02-2.38,2.37-7.86-8.22-10.6-19.37-9.13-29.23,3.84-26.49,36.17-28.32,38.55-8.95,1.83,14.8-4.2,37.45-8.95,51.89,8.4-10.6,19.91-33.98,34.71-32.7,2.56.18,2.19,3.47-.18,3.47-14.98-.73-25.03,27.95-35.44,35.26,6.76,8.95,9.68,22.11,12.24,33.43.73,3.29,3.47,23.02,9.13,19,5.3-3.47,14.25-14.43,25.58-31.42.91-1.46,4.38,0,2.92,2.56-11.51,16.63-20.46,27.95-26.49,32.15-12.24,8.4-17.54-12.61-19.55-21.92-1.83-8.22-4.2-17.9-8.04-25.58-9.14,21.56-21.92,51.89-49.15,48.6-6.76-.73-12.24-5.12-15.89-10.6-10.6,2.38-21.38,1.1-30.33-3.47-2.19-.91-.91-3.84.91-3.11,8.22,4.02,17.72,5.12,27.22,3.29-5.66-10.96-6.76-27.59,3.84-35.99-18.09-10.96-11.51-35.26,10.6-37.64,43.48-4.75,48.05,62.85-8.95,76.18,3.11,4.02,7.31,7.49,12.42,7.86,21.92,1.46,36.91-37.09,42.93-52.25-5.85-1.83-4.57-10.23,1.64-4.93ZM88.06,98.83c-19.73.73-25.21,23.75-7.31,31.97,1.64.73,1.64,2.56.18,3.47-11.14,7.13-10.41,23.2-4.57,33.62,45.31-11.88,47.32-70.16,11.69-69.06Z"/>
    </g>
  </g>
</svg>